<?xml version="1.0" encoding="UTF-8"?>
<!DOCTYPE svg PUBLIC "-//W3C//DTD SVG 1.1//EN" "http://www.w3.org/Graphics/SVG/1.1/DTD/svg11.dtd">
<!-- Creator: CorelDRAW 2019 (64 Bit Versão de avaliação) -->
<svg xmlns="http://www.w3.org/2000/svg" xml:space="preserve" width="740px" height="100px" version="1.1" style="shape-rendering:geometricPrecision; text-rendering:geometricPrecision; image-rendering:optimizeQuality; fill-rule:evenodd; clip-rule:evenodd"
viewBox="0 0 740 100"
 xmlns:xlink="http://www.w3.org/1999/xlink">
 <defs>
  <style type="text/css">
   <![CDATA[
    .fil2 {fill:none}
    .fil1 {fill:#0054C7}
    .fil0 {fill:#3BB1F5}
   ]]>
  </style>
   <clipPath id="id0">
    <path d="M-30 -36.499l800 0 -800 0z"/>
   </clipPath>
 </defs>
 <g id="Camada_x0020_1">
  <metadata id="CorelCorpID_0Corel-Layer"/>
  <path class="fil0" d="M0 0l740 0 0 67.259c-102.635,18.138 -222.104,32.741 -359.941,32.741 -137.837,0 -273.681,-12.059 -380.059,-32.452l0 -67.548z"/>
  <g style="clip-path:url(#id0)">
   <g id="_1975811590768">
    <path class="fil1" d="M761.98 -91.322l-783.96 0c-4.09,0 -7.629,4.177 -9.183,10.121 -0.541,2.069 -0.842,4.352 -0.842,6.747l0 102.691 0 140.216c0,9.277 4.511,16.868 10.025,16.868l783.96 0c5.514,0 10.025,-7.591 10.025,-16.868l0 -242.907c0,-9.278 -4.511,-16.868 -10.025,-16.868z"/>
   </g>
  </g>
  <line class="fil2" x1="-30" y1="-36.499" x2="770" y2= "-36.499" />
 </g>
</svg>
